<?xml version="1.0" encoding="UTF-8" standalone="no"?>
<svg
   xmlns:dc="http://purl.org/dc/elements/1.1/"
   xmlns:cc="http://creativecommons.org/ns#"
   xmlns:rdf="http://www.w3.org/1999/02/22-rdf-syntax-ns#"
   xmlns:svg="http://www.w3.org/2000/svg"
   xmlns="http://www.w3.org/2000/svg"
   xmlns:xlink="http://www.w3.org/1999/xlink"
   id="workspace"
   version="1.1"
   width="1179.3383"
   height="147.26208">
  <metadata
     id="metadata569">
    <rdf:RDF>
      <cc:Work
         rdf:about="">
        <dc:format>image/svg+xml</dc:format>
        <dc:type
           rdf:resource="http://purl.org/dc/dcmitype/StillImage" />
        <dc:title></dc:title>
      </cc:Work>
    </rdf:RDF>
  </metadata>
  <defs
     id="defs249">
    <linearGradient
       x1="0"
       y1="0.5"
       x2="1"
       y2="0.5"
       id="linearGradientSke8w4uc01c">
      <stop
         offset="0%"
         stop-color="#3a506b"
         id="stop4" />
      <stop
         offset="100%"
         stop-color="#3a506b"
         id="stop6" />
    </linearGradient>
    <linearGradient
       x1="0"
       y1="0.5"
       x2="1"
       y2="0.5"
       id="linearGradientSke8w4uc01l">
      <stop
         offset="0%"
         stop-color="#3a506b"
         id="stop9" />
      <stop
         offset="100%"
         stop-color="#3a506b"
         id="stop11" />
    </linearGradient>
    <linearGradient
       x1="0"
       y1="0.5"
       x2="1"
       y2="0.5"
       id="linearGradientSke8w4uc01u">
      <stop
         offset="0%"
         stop-color="#3a506b"
         id="stop14" />
      <stop
         offset="100%"
         stop-color="#3a506b"
         id="stop16" />
    </linearGradient>
    <linearGradient
       x1="0"
       y1="0.5"
       x2="1"
       y2="0.5"
       id="linearGradientSke8w4uc023">
      <stop
         offset="0%"
         stop-color="#3a506b"
         id="stop19" />
      <stop
         offset="100%"
         stop-color="#3a506b"
         id="stop21" />
    </linearGradient>
    <linearGradient
       x1="0"
       y1="0.5"
       x2="1"
       y2="0.5"
       id="linearGradientSke8w4uc02c">
      <stop
         offset="0%"
         stop-color="#3a506b"
         id="stop24" />
      <stop
         offset="100%"
         stop-color="#3a506b"
         id="stop26" />
    </linearGradient>
    <linearGradient
       x1="0"
       y1="0.5"
       x2="1"
       y2="0.5"
       id="linearGradientSke8w4uc02l">
      <stop
         offset="0%"
         stop-color="#3a506b"
         id="stop29" />
      <stop
         offset="100%"
         stop-color="#3a506b"
         id="stop31" />
    </linearGradient>
    <linearGradient
       x1="0"
       y1="0.5"
       x2="1"
       y2="0.5"
       id="linearGradientSke8w4uc02u">
      <stop
         offset="0%"
         stop-color="#3a506b"
         id="stop34" />
      <stop
         offset="100%"
         stop-color="#3a506b"
         id="stop36" />
    </linearGradient>
    <linearGradient
       x1="0"
       y1="0.5"
       x2="1"
       y2="0.5"
       id="linearGradientSke8w4uc033">
      <stop
         offset="0%"
         stop-color="#3a506b"
         id="stop39" />
      <stop
         offset="100%"
         stop-color="#3a506b"
         id="stop41" />
    </linearGradient>
    <linearGradient
       x1="0"
       y1="0.5"
       x2="1"
       y2="0.5"
       id="linearGradientSke8w4uc03c">
      <stop
         offset="0%"
         stop-color="#3a506b"
         id="stop44" />
      <stop
         offset="100%"
         stop-color="#3a506b"
         id="stop46" />
    </linearGradient>
    <linearGradient
       x1="0"
       y1="0.5"
       x2="1"
       y2="0.5"
       id="linearGradientSke8w4uc03l">
      <stop
         offset="0%"
         stop-color="#3a506b"
         id="stop49" />
      <stop
         offset="100%"
         stop-color="#3a506b"
         id="stop51" />
    </linearGradient>
    <linearGradient
       x1="0"
       y1="0.5"
       x2="1"
       y2="0.5"
       id="linearGradientSke8w4uc03u">
      <stop
         offset="0%"
         stop-color="#3a506b"
         id="stop54" />
      <stop
         offset="100%"
         stop-color="#3a506b"
         id="stop56" />
    </linearGradient>
    <linearGradient
       x1="0"
       y1="0.5"
       x2="1"
       y2="0.5"
       id="linearGradientSke8w4uc043">
      <stop
         offset="0%"
         stop-color="#3a506b"
         id="stop59" />
      <stop
         offset="100%"
         stop-color="#3a506b"
         id="stop61" />
    </linearGradient>
    <linearGradient
       x1="0"
       y1="0.5"
       x2="1"
       y2="0.5"
       id="linearGradientSke8w4uc04c">
      <stop
         offset="0%"
         stop-color="#1c2541"
         id="stop64" />
      <stop
         offset="100%"
         stop-color="#1c2541"
         id="stop66" />
    </linearGradient>
    <linearGradient
       x1="0"
       y1="0.5"
       x2="1"
       y2="0.5"
       id="linearGradientSke8w4uc04l">
      <stop
         offset="0%"
         stop-color="#1c2541"
         id="stop69" />
      <stop
         offset="100%"
         stop-color="#1c2541"
         id="stop71" />
    </linearGradient>
    <linearGradient
       x1="0"
       y1="0.5"
       x2="1"
       y2="0.5"
       id="linearGradientSke8w4uc04v">
      <stop
         offset="0%"
         stop-color="#3a506b"
         id="stop74" />
      <stop
         offset="100%"
         stop-color="#3a506b"
         id="stop76" />
    </linearGradient>
    <linearGradient
       x1="0"
       y1="0.5"
       x2="1"
       y2="0.5"
       id="linearGradientSke8w4uc04y">
      <stop
         offset="0%"
         stop-color="#3a506b"
         id="stop79" />
      <stop
         offset="100%"
         stop-color="#3a506b"
         id="stop81" />
    </linearGradient>
    <linearGradient
       x1="0"
       y1="0.5"
       x2="1"
       y2="0.5"
       id="linearGradientSke8w4uc051">
      <stop
         offset="0%"
         stop-color="#3a506b"
         id="stop84" />
      <stop
         offset="100%"
         stop-color="#3a506b"
         id="stop86" />
    </linearGradient>
    <linearGradient
       x1="0"
       y1="0.5"
       x2="1"
       y2="0.5"
       id="linearGradientSke8w4uc054">
      <stop
         offset="0%"
         stop-color="#3a506b"
         id="stop89" />
      <stop
         offset="100%"
         stop-color="#3a506b"
         id="stop91" />
    </linearGradient>
    <linearGradient
       x1="0"
       y1="0.5"
       x2="1"
       y2="0.5"
       id="linearGradientSke8w4uc057">
      <stop
         offset="0%"
         stop-color="#3a506b"
         id="stop94" />
      <stop
         offset="100%"
         stop-color="#3a506b"
         id="stop96" />
    </linearGradient>
    <linearGradient
       x1="0"
       y1="0.5"
       x2="1"
       y2="0.5"
       id="linearGradientSke8w4uc05a">
      <stop
         offset="0%"
         stop-color="#3a506b"
         id="stop99" />
      <stop
         offset="100%"
         stop-color="#3a506b"
         id="stop101" />
    </linearGradient>
    <linearGradient
       x1="0"
       y1="0.5"
       x2="1"
       y2="0.5"
       id="linearGradientSke8w4uc05d">
      <stop
         offset="0%"
         stop-color="#3a506b"
         id="stop104" />
      <stop
         offset="100%"
         stop-color="#3a506b"
         id="stop106" />
    </linearGradient>
    <linearGradient
       x1="0"
       y1="0.5"
       x2="1"
       y2="0.5"
       id="linearGradientSke8w4uc05g">
      <stop
         offset="0%"
         stop-color="#3a506b"
         id="stop109" />
      <stop
         offset="100%"
         stop-color="#3a506b"
         id="stop111" />
    </linearGradient>
    <linearGradient
       x1="0"
       y1="0.5"
       x2="1"
       y2="0.5"
       id="linearGradientSke8w4uc05j">
      <stop
         offset="0%"
         stop-color="#3a506b"
         id="stop114" />
      <stop
         offset="100%"
         stop-color="#3a506b"
         id="stop116" />
    </linearGradient>
    <linearGradient
       x1="0"
       y1="0.5"
       x2="1"
       y2="0.5"
       id="linearGradientSke8w4uc05m">
      <stop
         offset="0%"
         stop-color="#3a506b"
         id="stop119" />
      <stop
         offset="100%"
         stop-color="#3a506b"
         id="stop121" />
    </linearGradient>
    <linearGradient
       x1="0"
       y1="0.5"
       x2="1"
       y2="0.5"
       id="linearGradientSke8w4uc05p">
      <stop
         offset="0%"
         stop-color="#3a506b"
         id="stop124" />
      <stop
         offset="100%"
         stop-color="#3a506b"
         id="stop126" />
    </linearGradient>
    <linearGradient
       x1="0"
       y1="0.5"
       x2="1"
       y2="0.5"
       id="linearGradientSke8w4uc05s">
      <stop
         offset="0%"
         stop-color="#3a506b"
         id="stop129" />
      <stop
         offset="100%"
         stop-color="#3a506b"
         id="stop131" />
    </linearGradient>
    <linearGradient
       x1="0"
       y1="0.5"
       x2="1"
       y2="0.5"
       id="linearGradientSke8w4uc05v">
      <stop
         offset="0%"
         stop-color="#1c2541"
         id="stop134" />
      <stop
         offset="100%"
         stop-color="#1c2541"
         id="stop136" />
    </linearGradient>
    <linearGradient
       x1="0"
       y1="0.5"
       x2="1"
       y2="0.5"
       id="linearGradientSke8w4uc05y">
      <stop
         offset="0%"
         stop-color="#1c2541"
         id="stop139" />
      <stop
         offset="100%"
         stop-color="#1c2541"
         id="stop141" />
    </linearGradient>
    <linearGradient
       x1="15.509348"
       y1="25.256561"
       x2="27.410849"
       y2="25.256561"
       id="linearGradientSke8w4uc064"
       gradientTransform="scale(1.000042,0.99995799)"
       gradientUnits="userSpaceOnUse">
      <stop
         offset="0%"
         stop-color="#3a506b"
         id="stop144" />
      <stop
         offset="100%"
         stop-color="#3a506b"
         id="stop146" />
    </linearGradient>
    <linearGradient
       x1="47.892269"
       y1="74.38176"
       x2="51.71077"
       y2="74.38176"
       id="linearGradientSke8w4uc067"
       gradientTransform="scale(0.99986907,1.000131)"
       gradientUnits="userSpaceOnUse">
      <stop
         offset="0%"
         stop-color="#3a506b"
         id="stop149" />
      <stop
         offset="100%"
         stop-color="#3a506b"
         id="stop151" />
    </linearGradient>
    <linearGradient
       x1="19.448814"
       y1="41.626694"
       x2="23.487816"
       y2="41.626694"
       id="linearGradientSke8w4uc06a"
       gradientTransform="scale(0.99975244,1.0002476)"
       gradientUnits="userSpaceOnUse">
      <stop
         offset="0%"
         stop-color="#3a506b"
         id="stop154" />
      <stop
         offset="100%"
         stop-color="#3a506b"
         id="stop156" />
    </linearGradient>
    <linearGradient
       x1="14.173"
       y1="58.007999"
       x2="28.749001"
       y2="58.007999"
       id="linearGradientSke8w4uc06d"
       gradientUnits="userSpaceOnUse">
      <stop
         offset="0%"
         stop-color="#3a506b"
         id="stop159" />
      <stop
         offset="100%"
         stop-color="#3a506b"
         id="stop161" />
    </linearGradient>
    <linearGradient
       x1="17.534117"
       y1="74.385765"
       x2="25.392616"
       y2="74.385765"
       id="linearGradientSke8w4uc06g"
       gradientTransform="scale(0.99993638,1.0000636)"
       gradientUnits="userSpaceOnUse">
      <stop
         offset="0%"
         stop-color="#3a506b"
         id="stop164" />
      <stop
         offset="100%"
         stop-color="#3a506b"
         id="stop166" />
    </linearGradient>
    <linearGradient
       x1="41.646553"
       y1="25.254452"
       x2="57.949554"
       y2="25.254452"
       id="linearGradientSke8w4uc06j"
       gradientTransform="scale(0.99993866,1.0000613)"
       gradientUnits="userSpaceOnUse">
      <stop
         offset="0%"
         stop-color="#3a506b"
         id="stop169" />
      <stop
         offset="100%"
         stop-color="#3a506b"
         id="stop171" />
    </linearGradient>
    <linearGradient
       x1="47.23"
       y1="41.637001"
       x2="52.360001"
       y2="41.637001"
       id="linearGradientSke8w4uc06m"
       gradientUnits="userSpaceOnUse">
      <stop
         offset="0%"
         stop-color="#3a506b"
         id="stop174" />
      <stop
         offset="100%"
         stop-color="#3a506b"
         id="stop176" />
    </linearGradient>
    <linearGradient
       x1="39.198223"
       y1="58.012108"
       x2="60.385723"
       y2="58.012108"
       id="linearGradientSke8w4uc06p"
       gradientTransform="scale(1.0000708,0.99992921)"
       gradientUnits="userSpaceOnUse">
      <stop
         offset="0%"
         stop-color="#3a506b"
         id="stop179" />
      <stop
         offset="100%"
         stop-color="#3a506b"
         id="stop181" />
    </linearGradient>
    <linearGradient
       x1="75.355499"
       y1="25.250475"
       x2="80.936501"
       y2="25.250475"
       id="linearGradientSke8w4uc06s"
       gradientTransform="scale(0.99982084,1.0001792)"
       gradientUnits="userSpaceOnUse">
      <stop
         offset="0%"
         stop-color="#3a506b"
         id="stop184" />
      <stop
         offset="100%"
         stop-color="#3a506b"
         id="stop186" />
    </linearGradient>
    <linearGradient
       x1="0"
       y1="0.5"
       x2="1"
       y2="0.5"
       id="linearGradientSke8w4uc06v">
      <stop
         offset="0%"
         stop-color="#3a506b"
         id="stop189" />
      <stop
         offset="100%"
         stop-color="#3a506b"
         id="stop191" />
    </linearGradient>
    <linearGradient
       x1="73.878654"
       y1="58.011913"
       x2="82.372154"
       y2="58.011913"
       id="linearGradientSke8w4uc06y"
       gradientTransform="scale(1.0000589,0.99994113)"
       gradientUnits="userSpaceOnUse">
      <stop
         offset="0%"
         stop-color="#3a506b"
         id="stop194" />
      <stop
         offset="100%"
         stop-color="#3a506b"
         id="stop196" />
    </linearGradient>
    <linearGradient
       x1="69.530952"
       y1="74.394325"
       x2="86.719955"
       y2="74.394325"
       id="linearGradientSke8w4uc071"
       gradientTransform="scale(1.0000582,0.99994182)"
       gradientUnits="userSpaceOnUse">
      <stop
         offset="0%"
         stop-color="#3a506b"
         id="stop199" />
      <stop
         offset="100%"
         stop-color="#3a506b"
         id="stop201" />
    </linearGradient>
    <linearGradient
       x1="0"
       y1="0.5"
       x2="1"
       y2="0.5"
       id="linearGradientSke8w4uc074">
      <stop
         offset="0%"
         stop-color="#1c2541"
         id="stop204" />
      <stop
         offset="100%"
         stop-color="#1c2541"
         id="stop206" />
    </linearGradient>
    <linearGradient
       x1="0"
       y1="0.5"
       x2="1"
       y2="0.5"
       id="linearGradientSke8w4uc077">
      <stop
         offset="0%"
         stop-color="#1c2541"
         id="stop209" />
      <stop
         offset="100%"
         stop-color="#1c2541"
         id="stop211" />
    </linearGradient>
    <linearGradient
       x1="-203.96094"
       y1="-124.37303"
       x2="206.1409"
       y2="-124.37303"
       id="linearGradientSke8w4uc07j"
       gradientTransform="scale(4.3028206,0.23240569)"
       gradientUnits="userSpaceOnUse">
      <stop
         offset="0%"
         stop-color="#5bc0be"
         id="stop214" />
      <stop
         offset="100%"
         stop-color="#5bc0be"
         id="stop216" />
    </linearGradient>
    <linearGradient
       x1="0"
       y1="0.5"
       x2="1"
       y2="0.5"
       id="linearGradientSke8w4uc07m">
      <stop
         offset="0%"
         stop-color="#1c2541"
         id="stop219" />
      <stop
         offset="100%"
         stop-color="#1c2541"
         id="stop221" />
    </linearGradient>
    <linearGradient
       x1="0"
       y1="0.5"
       x2="1"
       y2="0.5"
       id="linearGradientSke8w4uc07p">
      <stop
         offset="0%"
         stop-color="#1c2541"
         id="stop224" />
      <stop
         offset="100%"
         stop-color="#1c2541"
         id="stop226" />
    </linearGradient>
    <linearGradient
       x1="0"
       y1="436.09119"
       x2="35.719749"
       y2="436.09119"
       id="linearGradientSke8w4uc07s"
       gradientTransform="scale(4.9480191,0.20210108)"
       gradientUnits="userSpaceOnUse">
      <stop
         offset="0%"
         stop-color="#1c2541"
         id="stop229" />
      <stop
         offset="100%"
         stop-color="#1c2541"
         id="stop231" />
    </linearGradient>
    <linearGradient
       x1="70.621002"
       y1="41.637501"
       x2="85.638"
       y2="41.637501"
       id="linearGradientSke8w4uc07v"
       gradientUnits="userSpaceOnUse">
      <stop
         offset="0%"
         stop-color="#3a506b"
         id="stop234" />
      <stop
         offset="100%"
         stop-color="#3a506b"
         id="stop236" />
    </linearGradient>
    <linearGradient
       x1="0"
       y1="0.5"
       x2="1"
       y2="0.5"
       id="linearGradientSke8w4uc07y">
      <stop
         offset="0%"
         stop-color="#1c2541"
         id="stop239" />
      <stop
         offset="100%"
         stop-color="#1c2541"
         id="stop241" />
    </linearGradient>
    <linearGradient
       x1="0"
       y1="88.385002"
       x2="176.77"
       y2="88.385002"
       id="linearGradientSke8w4uc081"
       gradientUnits="userSpaceOnUse">
      <stop
         offset="0%"
         stop-color="#1c2541"
         id="stop244" />
      <stop
         offset="100%"
         stop-color="#1c2541"
         id="stop246" />
    </linearGradient>
    <linearGradient
       x1="14.173"
       y1="58.007999"
       x2="28.749001"
       y2="58.007999"
       id="linearGradientSke8w4uc06d-6"
       gradientUnits="userSpaceOnUse">
      <stop
         offset="0%"
         stop-color="#3a506b"
         id="stop159-5" />
      <stop
         offset="100%"
         stop-color="#3a506b"
         id="stop161-1" />
    </linearGradient>
    <linearGradient
       xlink:href="#linearGradientSke8w4uc07j"
       id="linearGradient2049"
       gradientUnits="userSpaceOnUse"
       gradientTransform="matrix(4.3028206,0,0,0.23240569,0,198.48205)"
       x1="-203.96094"
       y1="-124.37303"
       x2="206.1409"
       y2="-124.37303" />
    <linearGradient
       x1="0"
       y1="436.09119"
       x2="35.719749"
       y2="436.09119"
       id="linearGradientSke8w4uc07s-9"
       gradientTransform="scale(4.9480191,0.20210108)"
       gradientUnits="userSpaceOnUse">
      <stop
         offset="0%"
         stop-color="#1c2541"
         id="stop229-6" />
      <stop
         offset="100%"
         stop-color="#1c2541"
         id="stop231-7" />
    </linearGradient>
    <defs
       id="defs475" />
  </defs>
  <g
     class="background-part"
     id="g253"
     transform="translate(-215.33084,-456.9818)" />
  <g
     class="selector-part"
     id="g257"
     transform="translate(-215.33084,-454.75281)" />
  <g
     class="selector-part"
     transform="translate(170.66916,-82.753165)"
     id="g261">
    <rect
       x="0"
       y="0"
       width="0"
       height="0"
       fill="rgba(255,255,255,0)"
       id="rect259" />
  </g>
  <g
     class="svg-clip svg-visible"
     style="opacity:1"
     transform="matrix(1.8291,0.2897,-0.2897,1.8291,157.50566,-13.000365)"
     id="g277">
    <rect
       x="0"
       y="0"
       width="21"
       height="21"
       style="fill:none"
       class="svg-hitbox"
       id="rect263" />
    <svg
       width="21.902"
       height="21.900999"
       viewBox="10.51 14.305 21.902 21.901"
       version="1.1"
       id="svg275"
       style="opacity:1">
      <defs
         id="defs267" />
      <g
         id="g269" />
      <g
         transform="translate(1.3712614,3.4810975)"
         id="g273">
        <path
           d="m 21.461,25.254 h 5.951 c 0,3.287 -2.663,5.952 -5.951,5.952 -3.284,0 -5.951,-2.665 -5.951,-5.952 0,-3.286 2.667,-5.949 5.951,-5.949 3.288,0 5.951,2.664 5.951,5.949 v 0 z"
           style="fill:url(#linearGradientSke8w4uc064);stroke:none"
           id="path271" />
      </g>
    </svg>
  </g>
  <g
     class="svg-clip svg-visible"
     style="opacity:1"
     transform="matrix(1.8291,0.2897,-0.2897,1.8291,201.66316,93.47473)"
     id="g293">
    <rect
       x="0"
       y="0"
       width="13"
       height="13"
       style="fill:none"
       class="svg-hitbox"
       id="rect279" />
    <svg
       width="13.818"
       height="13.819"
       viewBox="42.886 67.482 13.818 13.819"
       version="1.1"
       id="svg291">
      <defs
         id="defs283" />
      <g
         id="g285" />
      <g
         id="g289">
        <path
           d="m 49.794,74.391 h 1.91 c 0,1.054 -0.856,1.91 -1.91,1.91 -1.054,0 -1.908,-0.856 -1.908,-1.91 0,-1.056 0.854,-1.909 1.908,-1.909 1.053,0 1.91,0.854 1.91,1.909 v 0 z"
           style="fill:url(#linearGradientSke8w4uc067);stroke:none"
           id="path287" />
      </g>
    </svg>
  </g>
  <g
     class="svg-clip svg-visible"
     style="opacity:1"
     transform="matrix(1.8291,0.2897,-0.2897,1.8291,157.89346,24.415435)"
     id="g309">
    <rect
       x="0"
       y="0"
       width="14"
       height="14"
       style="fill:none"
       class="svg-hitbox"
       id="rect295" />
    <svg
       width="14.038"
       height="14.04"
       viewBox="14.444 34.617 14.038 14.04"
       version="1.1"
       id="svg307">
      <defs
         id="defs299" />
      <g
         id="g301" />
      <g
         id="g305">
        <path
           d="m 21.461,41.637 h 2.021 c 0,1.115 -0.905,2.02 -2.021,2.02 -1.116,0 -2.017,-0.904 -2.017,-2.02 0,-1.116 0.901,-2.02 2.017,-2.02 1.116,0 2.021,0.904 2.021,2.02 v 0 z"
           style="fill:url(#linearGradientSke8w4uc06a);stroke:none"
           id="path303" />
      </g>
    </svg>
  </g>
  <g
     class="svg-clip svg-visible"
     style="opacity:1"
     transform="matrix(1.8291,0.2897,-0.2897,1.8291,146.19656,43.821535)"
     id="g325">
    <rect
       x="0"
       y="0"
       width="24"
       height="24"
       style="fill:none"
       class="svg-hitbox"
       id="rect311" />
    <svg
       style="opacity:1"
       width="24.576"
       height="24.576"
       viewBox="9.173 45.72 24.576 24.576"
       version="1.1"
       id="svg323">
      <defs
         id="defs315" />
      <g
         id="g317" />
      <g
         id="g321">
        <path
           d="m 21.461,58.008 h 7.288 c 0,4.025 -3.264,7.288 -7.288,7.288 -4.025,0 -7.288,-3.263 -7.288,-7.288 0,-4.024 3.263,-7.288 7.288,-7.288 4.024,0 7.288,3.263 7.288,7.288 v 0 z"
           style="fill:url(#linearGradientSke8w4uc06d);stroke:none"
           id="path319" />
      </g>
    </svg>
  </g>
  <g
     class="svg-clip svg-visible"
     style="opacity:1"
     transform="matrix(1.8291,0.2897,-0.2897,1.8291,128.58436,25.23723)"
     id="g341">
    <rect
       x="0"
       y="0"
       width="17"
       height="17"
       style="fill:none"
       class="svg-hitbox"
       id="rect327" />
    <svg
       width="17.858"
       height="17.858999"
       viewBox="12.533 65.461 17.858 17.859"
       version="1.1"
       id="svg339"
       style="opacity:1">
      <defs
         id="defs331" />
      <g
         id="g333" />
      <g
         id="g337">
        <path
           d="m 21.461,74.391 h 3.93 c 0,2.169 -1.762,3.929 -3.93,3.929 -2.169,0 -3.928,-1.76 -3.928,-3.929 0,-2.171 1.759,-3.93 3.928,-3.93 2.168,0 3.93,1.759 3.93,3.93 v 0 z"
           style="fill:url(#linearGradientSke8w4uc06g);stroke:none"
           id="path335" />
      </g>
    </svg>
  </g>
  <g
     class="svg-clip svg-visible"
     style="opacity:1"
     transform="matrix(1.8291,0.2897,-0.2897,1.8291,205.65716,-10.297265)"
     id="g357">
    <rect
       x="0"
       y="0"
       width="26"
       height="26"
       style="fill:none"
       class="svg-hitbox"
       id="rect343" />
    <svg
       width="26.302"
       height="26.304001"
       viewBox="36.644 12.104 26.302 26.304"
       version="1.1"
       id="svg355">
      <defs
         id="defs347" />
      <g
         id="g349" />
      <g
         id="g353">
        <path
           d="m 49.794,25.254 h 8.152 c 0,4.503 -3.65,8.154 -8.152,8.154 -4.5,0 -8.15,-3.651 -8.15,-8.154 0,-4.501 3.65,-8.15 8.15,-8.15 4.501,0 8.152,3.649 8.152,8.15 v 0 z"
           style="fill:url(#linearGradientSke8w4uc06j);stroke:none"
           id="path351" />
      </g>
    </svg>
  </g>
  <g
     class="svg-clip svg-visible"
     style="opacity:1"
     transform="matrix(1.8291,0.2897,-0.2897,1.8291,209.12376,31.356035)"
     id="g373">
    <rect
       x="0"
       y="0"
       width="15"
       height="15"
       style="fill:none"
       class="svg-hitbox"
       id="rect359" />
    <svg
       width="15.13"
       height="15.13"
       viewBox="42.23 34.072 15.13 15.13"
       version="1.1"
       id="svg371">
      <defs
         id="defs363" />
      <g
         id="g365" />
      <g
         id="g369">
        <path
           d="m 49.794,41.638 h 2.566 c 0,1.417 -1.146,2.564 -2.566,2.564 -1.416,0 -2.564,-1.147 -2.564,-2.564 0,-1.417 1.148,-2.566 2.564,-2.566 1.419,0 2.566,1.148 2.566,2.566 v 0 z"
           style="fill:url(#linearGradientSke8w4uc06m);stroke:none"
           id="path367" />
      </g>
    </svg>
  </g>
  <g
     class="svg-clip svg-visible"
     style="opacity:1"
     transform="matrix(1.8291,0.2897,-0.2897,1.8291,191.80876,44.405735)"
     id="g389">
    <rect
       x="0"
       y="0"
       width="31"
       height="31"
       style="fill:none"
       class="svg-hitbox"
       id="rect375" />
    <svg
       width="31.188999"
       height="31.186001"
       viewBox="34.201 42.415 31.189 31.186"
       version="1.1"
       id="svg387">
      <defs
         id="defs379" />
      <g
         id="g381" />
      <g
         id="g385">
        <path
           d="M 49.798,58.008 H 60.39 c 0,5.853 -4.744,10.593 -10.592,10.593 -5.852,0 -10.597,-4.74 -10.597,-10.593 0,-5.852 4.745,-10.593 10.597,-10.593 5.848,0 10.592,4.742 10.592,10.593 v 0 H 49.798 Z"
           style="fill:url(#linearGradientSke8w4uc06p);stroke:none"
           id="path383" />
      </g>
    </svg>
  </g>
  <g
     class="svg-clip svg-visible"
     style="opacity:1"
     transform="matrix(1.8291,0.2897,-0.2897,1.8291,266.12376,9.356035)"
     id="g405">
    <rect
       x="0"
       y="0"
       width="15"
       height="15"
       style="fill:none"
       class="svg-hitbox"
       id="rect391" />
    <svg
       width="15.58"
       height="15.582"
       viewBox="70.342 17.464 15.58 15.582"
       version="1.1"
       id="svg403"
       style="opacity:1">
      <defs
         id="defs395" />
      <g
         id="g397" />
      <g
         id="g401">
        <path
           d="m 78.13,25.254 h 2.792 c 0,1.542 -1.251,2.792 -2.792,2.792 -1.541,0 -2.788,-1.25 -2.788,-2.792 0,-1.541 1.247,-2.79 2.788,-2.79 1.541,0 2.792,1.249 2.792,2.79 v 0 z"
           style="fill:url(#linearGradientSke8w4uc06s);stroke:none"
           id="path399" />
      </g>
    </svg>
  </g>
  <g
     class="svg-clip svg-visible"
     style="opacity:1"
     transform="matrix(1.8291,0.2897,-0.2897,1.8291,253.42686,28.762135)"
     id="g421">
    <rect
       x="0"
       y="0"
       width="25"
       height="25"
       style="fill:none"
       class="svg-hitbox"
       id="rect407" />
    <svg
       width="25.017"
       height="25.017"
       viewBox="65.621 29.129 25.017 25.017"
       version="1.1"
       id="svg419"
       style="opacity:1">
      <defs
         id="defs411" />
      <g
         id="g413" />
      <g
         id="g417">
        <path
           d="m 78.13,41.638 h 7.508 c 0,4.147 -3.362,7.508 -7.508,7.508 -4.146,0 -7.509,-3.361 -7.509,-7.508 0,-4.147 3.362,-7.509 7.509,-7.509 4.146,0 7.508,3.362 7.508,7.509 v 0 z"
           style="fill:url(#linearGradientSke8w4uc07v);stroke:none"
           id="path415" />
      </g>
    </svg>
  </g>
  <g
     class="svg-clip svg-visible"
     style="opacity:1"
     transform="matrix(1.8291,0.2897,-0.2897,1.8291,253.81476,66.177835)"
     id="g437">
    <rect
       x="0"
       y="0"
       width="18"
       height="18"
       style="fill:none"
       class="svg-hitbox"
       id="rect423" />
    <svg
       width="18.493999"
       height="18.493"
       viewBox="68.883 48.762 18.494 18.493"
       version="1.1"
       id="svg435">
      <defs
         id="defs427" />
      <g
         id="g429" />
      <g
         id="g433">
        <path
           d="m 78.13,58.008 h 4.247 c 0,2.346 -1.903,4.247 -4.247,4.247 -2.348,0 -4.247,-1.901 -4.247,-4.247 0,-2.346 1.899,-4.246 4.247,-4.246 2.344,0 4.247,1.9 4.247,4.246 v 0 z"
           style="fill:url(#linearGradientSke8w4uc06y);stroke:none"
           id="path431" />
      </g>
    </svg>
  </g>
  <g
     class="svg-clip svg-visible"
     style="opacity:1"
     transform="matrix(1.8291,0.2897,-0.2897,1.8291,241.88746,82.64333)"
     id="g453">
    <rect
       x="0"
       y="0"
       width="27"
       height="27"
       style="fill:none"
       class="svg-hitbox"
       id="rect439" />
    <svg
       width="27.190001"
       height="27.188"
       viewBox="64.535 60.796 27.19 27.188"
       version="1.1"
       id="svg451">
      <defs
         id="defs443" />
      <g
         id="g445" />
      <g
         id="g449">
        <path
           d="m 78.13,74.391 h 8.595 c 0,4.745 -3.851,8.593 -8.595,8.593 -4.745,0 -8.595,-3.848 -8.595,-8.593 0,-4.747 3.85,-8.595 8.595,-8.595 4.744,0 8.595,3.848 8.595,8.595 v 0 z"
           style="fill:url(#linearGradientSke8w4uc071);stroke:none"
           id="path447" />
      </g>
    </svg>
  </g>
  <g
     class="svg-clip svg-visible"
     style="opacity:1"
     transform="matrix(0.6074,0,0,0.6074,175.87366,35.755035)"
     id="g469">
    <rect
       x="0"
       y="0"
       width="187"
       height="186"
       style="fill:none"
       class="svg-hitbox"
       id="rect455" />
    <svg
       width="187.03372"
       height="186.77"
       viewBox="-5.1318609 -5 187.03372 186.77"
       class="thumb"
       version="1.1"
       id="svg467">
      <defs
         id="defs459" />
      <g
         id="g461" />
      <g
         id="g465">
        <circle
           cx="88.385002"
           cy="88.385002"
           r="88.385002"
           style="fill:url(#linearGradientSke8w4uc081);stroke:none"
           id="circle463" />
      </g>
    </svg>
  </g>
  <g
     style="opacity:1"
     class="svg-text svg-visible"
     transform="matrix(0.6648,0,0,0.6533,585.66916,-7.753165)"
     id="g493">
    <path
       style="fill:none"
       d="m -886.9873,214.02893 c 866.9873,-1 906.9873,-1 1773.9746,0"
       id="path487" />
    <path
       d="m -823.0273,198.48205 -45.21,-68.75001 v 68.75001 h -9.37 v -75.00001 h 15.62 l 43.7,65.62001 43.7,-65.62001 h 14.94 v 75.00001 h -9.37 v -67.72001 l -44.53,67.72001 z m 77.44875,-28.52 v 0 q 0,-8.64 1.85,-14.30001 1.86,-5.67 5.96,-8.99 4.1,-3.32 10.64,-4.66 6.55,-1.34 15.92,-1.34 v 0 q 9.38,0 15.92,1.34 6.54,1.34 10.65,4.66 4.1,3.32 5.95,8.99 1.86,5.66001 1.86,14.30001 v 0 q 0,8.65 -1.86,14.36 -1.85,5.71 -5.95,9.08 -4.11,3.37 -10.65,4.76 -6.54,1.39 -15.92,1.39 v 0 q -9.37,0 -15.92,-1.39 -6.54,-1.39 -10.64,-4.76 -4.1,-3.37 -5.96,-9.08 -1.85,-5.71 -1.85,-14.36 z m 9.37,0 v 0 q 0,4.69 0.34,8.16 0.35,3.47 1.3,5.96 0.95,2.49 2.66,4.05 1.71,1.56 4.49,2.49 2.78,0.93 6.76,1.27 3.98,0.34 9.45,0.34 v 0 q 4.69,0 8.38,-0.22 3.68,-0.22 6.44,-1 2.76,-0.78 4.71,-2.22 1.96,-1.44 3.15,-3.93 1.2,-2.49 1.76,-6.13 0.56,-3.64 0.56,-8.77 v 0 q 0,-5.02 -0.56,-8.56 -0.56,-3.55001 -1.76,-5.94001 -1.19,-2.39 -3.15,-3.78 -1.95,-1.39 -4.71,-2.1 -2.76,-0.71 -6.44,-0.9 -3.69,-0.2 -8.38,-0.2 v 0 q -4.68,0 -8.37,0.2 -3.69,0.19 -6.45,0.9 -2.76,0.71 -4.71,2.1 -1.95,1.39 -3.15,3.78 -1.19,2.39 -1.76,5.94001 -0.56,3.54 -0.56,8.56 z m 73.445,28.52 v -75.00001 h 9.37 v 75.00001 z m 57.805,1.07 v 0 q -9.37,0 -15.92,-1.29 -6.54,-1.29 -10.64,-4.47 -4.1,-3.17 -5.96,-8.49 -1.85,-5.33 -1.85,-13.38 v 0 q 0,-9.23 1.85,-15.26001 1.86,-6.03 5.96,-9.6 4.1,-3.56 10.64,-4.98 6.55,-1.41 15.92,-1.41 v 0 q 6.69,0 11.6,0.97 4.91,0.98 8.4,2.84 3.49,1.85 5.66,4.49 2.17,2.63 3.42,5.54 1.24,2.91 1.71,6.81001 0.46,3.91 0.46,8.25 v 0 l -0.78,3.13 h -55.47 q 0,6.44 1.27,10.57 1.27,4.13 4.2,6.03 2.93,1.9 7.72,2.42 4.78,0.51 11.81,0.51 v 0 q 6.45,0 10.67,-0.37 4.23,-0.36 6.72,-1.39 2.49,-1.02 3.49,-2.85 1,-1.84 1,-4.77 v 0 h 9.37 q 0,4.55 -1.58,7.74 -1.59,3.2 -5.25,5.18 -3.67,1.98 -9.65,2.88 -5.98,0.9 -14.77,0.9 z m 0,-51.07001 v 0 q -4.68,0 -8.37,0.2 -3.69,0.19 -6.45,0.85 -2.76,0.66 -4.71,1.9 -1.95,1.25 -3.15,2.93 -1.19,1.69 -1.76,4.74 -0.56,3.05001 -0.56,7.35001 v 0 h 46.88 q 0,-5.71001 -1.22,-8.96001 -1.22,-3.25 -3.86,-5.35 -2.64,-2.1 -6.79,-2.88 -4.15,-0.78 -10.01,-0.78 z m 42.1925,21.97001 v 0 q 0,-5.86 0.58,-10.35001 0.59,-4.49 2.08,-7.81 1.49,-3.32 4,-5.54 2.52,-2.23 6.35,-3.59 3.83,-1.37 9.11,-1.96 5.27,-0.58 12.3,-0.58 v 0 q 9.38,0 15.43,1.15 6.06,1.14 9.57,3.51 3.52,2.37 4.88,6.01 1.37,3.64 1.37,8.66 v 0 h -9.37 q 0,-1.8 -0.1,-3.36 -0.1,-1.57 -0.71,-2.84 -0.61,-1.27 -1.93,-2.27 -1.32,-1 -3.76,-1.68 -2.44,-0.69 -6.17,-1.03 -3.74,-0.34 -9.21,-0.34 v 0 q -6.25,0 -10.52,0.44 -4.27,0.44 -7.06,1.44 -2.78,1 -4.29,2.69 -1.52,1.68 -2.2,4.12 -0.68,2.44 -0.81,5.74001 -0.12,3.3 -0.12,7.59 v 0 q 0,4.2 0.12,7.45 0.13,3.25 0.81,5.66 0.68,2.42 2.2,4.08 1.51,1.66 4.29,2.69 2.79,1.02 7.06,1.46 4.27,0.44 10.52,0.44 v 0 q 5.47,0 9.21,-0.39 3.73,-0.39 6.17,-1.12 2.44,-0.74 3.76,-1.81 1.32,-1.07 1.93,-2.47 0.61,-1.39 0.71,-3.07 0.1,-1.69 0.1,-3.64 v 0 h 9.37 q 0,5.13 -1.37,8.89 -1.36,3.76 -4.88,6.17 -3.51,2.42 -9.57,3.59 -6.05,1.17 -15.43,1.17 v 0 q -7.03,0 -12.3,-0.58 -5.28,-0.59 -9.11,-1.93 -3.83,-1.34 -6.35,-3.54 -2.51,-2.2 -4,-5.42 -1.49,-3.22 -2.08,-7.59 -0.58,-4.37 -0.58,-10.04 z m 78.22132,-28.22001 h 9.37 v 31.25001 q 0,5.22 0.79,8.81 0.78,3.59 3.12,5.79 2.34,2.2 6.64,3.17 4.3,0.98 11.33,0.98 v 0 q 7.62,0 12.47,-1.12 4.86,-1.13 7.65,-3.18 2.78,-2.05 3.83,-4.93 1.05,-2.88 1.05,-6.4 v 0 -34.37001 h 9.37 v 56.25001 h -9.37 v -9.38 q -0.68,1.52 -2.3,3.35 -1.61,1.83 -4.83,3.39 -3.22,1.57 -8.33,2.64 -5.1,1.07 -12.67,1.07 v 0 q -6.29,0 -10.81,-0.75 -4.52,-0.76 -7.67,-2.25 -3.15,-1.49 -5.05,-3.69 -1.91,-2.19 -2.93,-5.1 -1.03,-2.9 -1.37,-6.47 -0.34,-3.56 -0.34,-7.81 v 0 z m 81.25383,56.25001 v -75.00001 h 9.37 v 75.00001 z m 81.005,0 v -7.71 q -0.15,0.58 -2.2,2.92 v 0 q -1.47,1.76 -3.91,3.11 -2.44,1.34 -6.52,2.1 -4.07,0.75 -10.71,0.75 v 0 q -8.84,0 -15.09,-0.9 -6.25,-0.9 -10.21,-2.78 -3.95,-1.88 -5.78,-4.81 -1.83,-2.93 -1.83,-6.99 v 0 q 0,-4.24 1,-7.2 1,-2.95 2.93,-4.95 1.93,-2.01 4.66,-3.13 2.73,-1.12 6.23,-1.71 3.49,-0.58 7.64,-0.73 4.15,-0.15 8.83,-0.15 v 0 q 6.69,0 11.19,0.56 4.49,0.57 7.34,1.42 2.86,0.85 4.33,1.83 1.46,0.98 2.1,1.81 v 0 q 0,-5.47 -0.47,-9.33 -0.46,-3.86001 -1.51,-6.44001 -1.05,-2.59 -2.71,-4.13 -1.66,-1.54 -4.08,-2.32 -2.42,-0.78 -5.64,-1 -3.22,-0.22 -7.37,-0.22 v 0 q -6.45,0 -10.69,0.32 -4.25,0.31 -6.74,1.24 -2.49,0.93 -3.52,2.57 -1.02,1.63 -1.02,4.27 v 0 h -9.38 q 0,-4.44 1.59,-7.52 1.58,-3.08 5.27,-5.01 3.69,-1.92 9.69,-2.8 6.01,-0.88 14.8,-0.88 v 0 q 8.59,0 14.55,1.41 5.96,1.42 9.64,4.98 3.69,3.57 5.33,9.6 1.63,6.03001 1.63,15.26001 v 0 26.56 z m -21.78,-6.25 v 0 q 6.2,0 10.37,-0.59 4.18,-0.58 6.72,-1.75 2.54,-1.18 3.61,-2.93 1.08,-1.76 1.08,-4.11 v 0 q 0,-2.34 -1.25,-3.97 -1.24,-1.64 -4.15,-2.67 -2.9,-1.02 -7.69,-1.48 -4.79,-0.47 -11.82,-0.47 v 0 q -7.03,0 -11.35,0.25 -4.32,0.24 -6.66,1.12 -2.35,0.88 -3.15,2.59 -0.81,1.71 -0.81,4.63 v 0 q 0,2.93 0.86,4.77 0.85,1.83 3.49,2.85 2.63,1.03 7.59,1.39 4.96,0.37 13.16,0.37 z m 99.90086,-31.69001 h -7.81 q 0,-3.52 -0.52,-5.83 -0.51,-2.32 -2.41,-3.72 -1.91,-1.39 -5.64,-1.95 -3.74,-0.56 -10.18,-0.56 v 0 q -6.3,0 -10.26,1.1 -3.95,1.1 -6.2,3.1 -2.24,2 -3.05,4.78 -0.8,2.79 -0.8,6.21001 v 0 34.81 h -9.38 v -56.25001 h 9.38 v 8.94 q 0.48,-1.52 1.8,-3.35 1.32,-1.83 4.01,-3.42 2.68,-1.58 6.95,-2.66 4.28,-1.07 10.67,-1.07 v 0 q 7.33,0 11.92,1.29 4.59,1.3 7.15,3.81 2.56,2.51 3.47,6.23 0.9,3.71 0.9,8.54 z m 106.255,37.94001 h -75 v -75.00001 h 75 v 7.81 h -65.63 v 25 h 62.5 v 7.81001 h -62.5 v 26.57 h 65.63 z m 75.000001,0 h -9.38 v -31.25 q 0,-5.22 -0.78,-8.81001 -0.78,-3.59 -3.13,-5.79 -2.34,-2.2 -6.64,-3.17 -4.29,-0.98 -11.32,-0.98 v 0 q -7.620001,0 -12.480001,1.12 -4.86,1.13 -7.64,3.18 -2.79,2.05 -3.84,4.93 -1.04,2.88 -1.04,6.39001 v 0 34.38 h -9.38 v -56.25001 h 9.38 v 9.37 q 1.02,-2.39 2.92,-4.12 1.91,-1.73 4.3,-2.96 2.39,-1.22 5.18,-1.97 2.78,-0.76 5.56,-1.17 2.790001,-0.42 5.400001,-0.57 2.61,-0.14 4.76,-0.14 v 0 q 6.25,0 10.77,0.78 4.51,0.78 7.66,2.29 3.15,1.52 5.06,3.76 1.9,2.25 2.95,5.2 1.05,2.96 1.39,6.6 0.34,3.63001 0.34,7.93001 v 0 z m 59.4238281,-25 h 7.81 q 0,7.18 -1.17,11.99 -1.18,4.81 -3.94000004,7.69 -2.74999996,2.88 -7.24999996,4.1 -4.4900001,1.22 -11.0800001,1.22 v 0 q -6.4,0 -10.74,-0.98 -4.35,-0.97 -7.03,-3.32 -2.69,-2.34 -3.86,-6.25 -1.17,-3.9 -1.17,-9.76 v 0 -28.23001 h -11.57 v -7.71 h 11.57 v -15.38 h 9.37 v 15.38 H 2.7637891 v 7.71 H -32.546211 v 28.23001 q 0,4.68 0.71,7.22 0.71,2.54 2.27,3.71 1.56,1.18 4.13,1.37 2.56,0.2 6.27,0.2 v 0 q 2.93,0 5.25,-0.1 2.32,-0.1 4.0500001,-0.61 1.74,-0.51 2.96,-1.56 1.22,-1.05 1.97,-2.96 0.76,-1.9 1.1,-4.81 0.35,-2.9 0.35,-7.15 z m 23.4374999,25 v -56.25001 h 9.37 v 56.25001 z m 9.37,-75.00001 v 9.37 h -9.37 v -9.37 z m 62.505,50.00001 h 7.81 q 0,7.18 -1.17,11.99 -1.18,4.81 -3.94,7.69 -2.75,2.88 -7.25,4.1 -4.49,1.22 -11.08,1.22 v 0 q -6.4,0 -10.74,-0.98 -4.35,-0.97 -7.03,-3.32 -2.69,-2.34 -3.86,-6.25 -1.17,-3.9 -1.17,-9.76 v 0 -28.23001 h -11.57 v -7.71 h 11.57 v -15.38 h 9.37 v 15.38 h 35.31 v 7.71 h -35.31 v 28.23001 q 0,4.68 0.71,7.22 0.71,2.54 2.27,3.71 1.56,1.18 4.13,1.37 2.56,0.2 6.27,0.2 v 0 q 2.93,0 5.25,-0.1 2.32,-0.1 4.05,-0.61 1.74,-0.51 2.96,-1.56 1.22,-1.05 1.97,-2.96 0.76,-1.9 1.1,-4.81 0.35,-2.9 0.35,-7.15 z m 17.187501,-31.25001 29.68,56.25001 h 3.13 q -0.78,1.56 -1.39,2.98 -0.61,1.41 -1.49,2.64 -0.88,1.22 -2.2,2.19 -1.32,0.98 -3.49,1.69 -2.17,0.71 -5.4,1.07 -3.22,0.37 -7.91,0.37 v 0 7.81 q 5.47,0 9.48,-0.51 4,-0.52 6.9,-1.47 2.91,-0.95 4.91,-2.32 2,-1.36 3.47,-3.1 1.46,-1.73 2.61,-3.81 1.15,-2.07 2.32,-4.41 v 0 l 1.56,-3.13 28.13,-56.25001 h -10.94 l -23.44,50.00001 -25,-50.00001 z m 195.3575,4.69 h -9.38 q 0,-5.86 -1.27,-9.28 -1.27,-3.42 -4.19,-5.18 -2.93,-1.75 -7.72,-2.24 -4.78,-0.49 -11.82,-0.49 v 0 h -25.09 q -6.25,0 -10.53,0.37 -4.27,0.36 -7.05,1.49 -2.79,1.12 -4.3,3.22 -1.51,2.1 -2.2,5.56 -0.68,3.47 -0.78,8.53 -0.09,5.05 -0.09,12.08 v 0 q 0,7.03001 0.12,12.08001 0.12,5.06 0.8,8.53 0.69,3.46 2.18,5.56 1.48,2.1 4.27,3.22 2.78,1.13 7.05,1.49 4.28,0.37 10.53,0.37 v 0 h 25.14 q 5.47,0 9.43,-0.29 3.95,-0.3 6.73,-1.08 2.79,-0.78 4.5,-2.15 1.71,-1.36 2.66,-3.44 0.95,-2.07 1.29,-4.98 0.34,-2.9 0.34,-6.81 v 0 -4.69 h -37.59 v -7.81001 h 46.97 v 12.50001 q 0,4.69 -0.59,8.47 -0.58,3.79 -2.07,6.74 -1.49,2.95 -3.98,5.1 -2.49,2.15 -6.3,3.54 -3.81,1.39 -9.08,2.05 -5.28,0.66 -12.31,0.66 v 0 h -25.14 q -8.6,0 -14.48,-1.05 -5.89,-1.05 -9.69,-3.17 -3.81,-2.13 -5.89,-5.35 -2.07,-3.22 -3.02,-7.57 -0.96,-4.34 -1.1,-9.81 -0.15,-5.47 -0.15,-12.11001 v 0 q 0,-6.64 0.15,-12.11 0.14,-5.47 1.1,-9.81 0.95,-4.35 3.02,-7.57 2.08,-3.22 5.89,-5.35 3.8,-2.12 9.69,-3.17 5.88,-1.05 14.48,-1.05 v 0 h 25.09 q 7.04,0 12.31,0.66 5.27,0.66 9.08,2 3.81,1.34 6.32,3.39 2.52,2.05 4.01,4.84 1.49,2.78 2.07,6.29 0.59,3.52 0.59,7.82 z m 45.30883,52.63001 v 0 q -9.37,0 -15.92,-1.29 -6.54,-1.29 -10.64,-4.47 -4.1,-3.17 -5.96,-8.49 -1.85,-5.33 -1.85,-13.38 v 0 q 0,-9.23 1.85,-15.26001 1.86,-6.03 5.96,-9.6 4.1,-3.56 10.64,-4.98 6.55,-1.41 15.92,-1.41 v 0 q 6.69,0 11.6,0.97 4.91,0.98 8.4,2.84 3.49,1.85 5.66,4.49 2.17,2.63 3.42,5.54 1.24,2.91 1.71,6.81001 0.46,3.91 0.46,8.25 v 0 l -0.78,3.13 h -55.47 q 0,6.44 1.27,10.57 1.27,4.13 4.2,6.03 2.93,1.9 7.72,2.42 4.78,0.51 11.81,0.51 v 0 q 6.45,0 10.67,-0.37 4.23,-0.36 6.72,-1.39 2.49,-1.02 3.49,-2.85 1,-1.84 1,-4.77 v 0 h 9.37 q 0,4.55 -1.58,7.74 -1.59,3.2 -5.25,5.18 -3.67,1.98 -9.65,2.88 -5.98,0.9 -14.77,0.9 z m 0,-51.07001 v 0 q -4.68,0 -8.37,0.2 -3.69,0.19 -6.45,0.85 -2.76,0.66 -4.71,1.9 -1.95,1.25 -3.15,2.93 -1.19,1.69 -1.76,4.74 -0.56,3.05001 -0.56,7.35001 v 0 h 46.88 q 0,-5.71001 -1.22,-8.96001 -1.22,-3.25 -3.86,-5.35 -2.64,-2.1 -6.79,-2.88 -4.15,-0.78 -10.01,-0.78 z m 109.3825,50.00001 h -9.38 v -31.25 q 0,-5.22 -0.78,-8.81001 -0.78,-3.59 -3.13,-5.79 -2.34,-2.2 -6.64,-3.17 -4.29,-0.98 -11.32,-0.98 v 0 q -7.62,0 -12.48,1.12 -4.86,1.13 -7.64,3.18 -2.79,2.05 -3.84,4.93 -1.04,2.88 -1.04,6.39001 v 0 34.38 h -9.38 v -56.25001 h 9.38 v 9.37 q 1.02,-2.39 2.92,-4.12 1.91,-1.73 4.3,-2.96 2.39,-1.22 5.18,-1.97 2.78,-0.76 5.56,-1.17 2.79,-0.42 5.4,-0.57 2.61,-0.14 4.76,-0.14 v 0 q 6.25,0 10.77,0.78 4.51,0.78 7.66,2.29 3.15,1.52 5.06,3.76 1.9,2.25 2.95,5.2 1.05,2.96 1.39,6.6 0.34,3.63001 0.34,7.93001 v 0 z m 45.35383,1.07 v 0 q -9.37,0 -15.92,-1.29 -6.54,-1.29 -10.64,-4.47 -4.1,-3.17 -5.96,-8.49 -1.85,-5.33 -1.85,-13.38 v 0 q 0,-9.23 1.85,-15.26001 1.86,-6.03 5.96,-9.6 4.1,-3.56 10.64,-4.98 6.55,-1.41 15.92,-1.41 v 0 q 6.69,0 11.6,0.97 4.91,0.98 8.4,2.84 3.49,1.85 5.66,4.49 2.17,2.63 3.42,5.54 1.24,2.91 1.71,6.81001 0.46,3.91 0.46,8.25 v 0 l -0.78,3.13 h -55.47 q 0,6.44 1.27,10.57 1.27,4.13 4.2,6.03 2.93,1.9 7.72,2.42 4.78,0.51 11.81,0.51 v 0 q 6.45,0 10.67,-0.37 4.23,-0.36 6.72,-1.39 2.49,-1.02 3.49,-2.85 1,-1.84 1,-4.77 v 0 h 9.37 q 0,4.55 -1.58,7.74 -1.59,3.2 -5.25,5.18 -3.67,1.98 -9.65,2.88 -5.98,0.9 -14.77,0.9 z m 0,-51.07001 v 0 q -4.68,0 -8.37,0.2 -3.69,0.19 -6.45,0.85 -2.76,0.66 -4.71,1.9 -1.95,1.25 -3.15,2.93 -1.19,1.69 -1.76,4.74 -0.56,3.05001 -0.56,7.35001 v 0 h 46.88 q 0,-5.71001 -1.22,-8.96001 -1.22,-3.25 -3.86,-5.35 -2.64,-2.1 -6.79,-2.88 -4.15,-0.78 -10.01,-0.78 z m 100.0025,12.06 h -7.81 q 0,-3.52 -0.52,-5.83 -0.51,-2.32 -2.41,-3.72 -1.91,-1.39 -5.64,-1.95 -3.74,-0.56 -10.18,-0.56 v 0 q -6.3,0 -10.26,1.1 -3.95,1.1 -6.2,3.1 -2.24,2 -3.05,4.78 -0.8,2.79 -0.8,6.21001 v 0 34.81 h -9.38 v -56.25001 h 9.38 v 8.94 q 0.48,-1.52 1.8,-3.35 1.32,-1.83 4.01,-3.42 2.68,-1.58 6.95,-2.66 4.28,-1.07 10.67,-1.07 v 0 q 7.33,0 11.92,1.29 4.59,1.3 7.15,3.81 2.56,2.51 3.47,6.23 0.9,3.71 0.9,8.54 z m 62.26,37.94001 v -7.71 q -0.15,0.58 -2.2,2.92 v 0 q -1.47,1.76 -3.91,3.11 -2.44,1.34 -6.52,2.1 -4.07,0.75 -10.71,0.75 v 0 q -8.84,0 -15.09,-0.9 -6.25,-0.9 -10.21,-2.78 -3.95,-1.88 -5.78,-4.81 -1.83,-2.93 -1.83,-6.99 v 0 q 0,-4.24 1,-7.2 1,-2.95 2.93,-4.95 1.93,-2.01 4.66,-3.13 2.73,-1.12 6.23,-1.71 3.49,-0.58 7.64,-0.73 4.15,-0.15 8.83,-0.15 v 0 q 6.69,0 11.19,0.56 4.49,0.57 7.34,1.42 2.86,0.85 4.33,1.83 1.46,0.98 2.1,1.81 v 0 q 0,-5.47 -0.47,-9.33 -0.46,-3.86001 -1.51,-6.44001 -1.05,-2.59 -2.71,-4.13 -1.66,-1.54 -4.08,-2.32 -2.42,-0.78 -5.64,-1 -3.22,-0.22 -7.37,-0.22 v 0 q -6.45,0 -10.69,0.32 -4.25,0.31 -6.74,1.24 -2.49,0.93 -3.52,2.57 -1.02,1.63 -1.02,4.27 v 0 h -9.38 q 0,-4.44 1.59,-7.52 1.58,-3.08 5.27,-5.01 3.69,-1.92 9.69,-2.8 6.01,-0.88 14.8,-0.88 v 0 q 8.59,0 14.55,1.41 5.96,1.42 9.64,4.98 3.69,3.57 5.33,9.6 1.63,6.03001 1.63,15.26001 v 0 26.56 z m -21.78,-6.25 v 0 q 6.2,0 10.37,-0.59 4.18,-0.58 6.72,-1.75 2.54,-1.18 3.61,-2.93 1.08,-1.76 1.08,-4.11 v 0 q 0,-2.34 -1.25,-3.97 -1.24,-1.64 -4.15,-2.67 -2.9,-1.02 -7.69,-1.48 -4.79,-0.47 -11.82,-0.47 v 0 q -7.03,0 -11.35,0.25 -4.32,0.24 -6.66,1.12 -2.35,0.88 -3.15,2.59 -0.81,1.71 -0.81,4.63 v 0 q 0,2.93 0.86,4.77 0.85,1.83 3.49,2.85 2.63,1.03 7.59,1.39 4.96,0.37 13.16,0.37 z m 90.53085,-18.75 h 7.81 q 0,7.18 -1.17,11.99 -1.18,4.81 -3.94,7.69 -2.75,2.88 -7.25,4.1 -4.49,1.22 -11.08,1.22 v 0 q -6.4,0 -10.74,-0.98 -4.35,-0.97 -7.03,-3.32 -2.69,-2.34 -3.86,-6.25 -1.17,-3.9 -1.17,-9.76 v 0 -28.23001 h -11.57 v -7.71 h 11.57 v -15.38 h 9.37 v 15.38 h 35.31 v 7.71 h -35.31 v 28.23001 q 0,4.68 0.71,7.22 0.71,2.54 2.27,3.71 1.56,1.18 4.13,1.37 2.56,0.2 6.27,0.2 v 0 q 2.93,0 5.25,-0.1 2.32,-0.1 4.05,-0.61 1.74,-0.51 2.96,-1.56 1.22,-1.05 1.97,-2.96 0.76,-1.9 1.1,-4.81 0.35,-2.9 0.35,-7.15 z m 15.6225,-3.52 v 0 q 0,-8.64 1.85,-14.30001 1.86,-5.67 5.96,-8.99 4.1,-3.32 10.64,-4.66 6.55,-1.34 15.92,-1.34 v 0 q 9.38,0 15.92,1.34 6.54,1.34 10.65,4.66 4.1,3.32 5.95,8.99 1.86,5.66001 1.86,14.30001 v 0 q 0,8.65 -1.86,14.36 -1.85,5.71 -5.95,9.08 -4.11,3.37 -10.65,4.76 -6.54,1.39 -15.92,1.39 v 0 q -9.37,0 -15.92,-1.39 -6.54,-1.39 -10.64,-4.76 -4.1,-3.37 -5.96,-9.08 -1.85,-5.71 -1.85,-14.36 z m 9.37,0 v 0 q 0,4.69 0.34,8.16 0.35,3.47 1.3,5.96 0.95,2.49 2.66,4.05 1.71,1.56 4.49,2.49 2.78,0.93 6.76,1.27 3.98,0.34 9.45,0.34 v 0 q 4.69,0 8.38,-0.22 3.68,-0.22 6.44,-1 2.76,-0.78 4.71,-2.22 1.96,-1.44 3.15,-3.93 1.2,-2.49 1.76,-6.13 0.56,-3.64 0.56,-8.77 v 0 q 0,-5.02 -0.56,-8.56 -0.56,-3.55001 -1.76,-5.94001 -1.19,-2.39 -3.15,-3.78 -1.95,-1.39 -4.71,-2.1 -2.76,-0.71 -6.44,-0.9 -3.69,-0.2 -8.38,-0.2 v 0 q -4.68,0 -8.37,0.2 -3.69,0.19 -6.45,0.9 -2.76,0.71 -4.71,2.1 -1.95,1.39 -3.15,3.78 -1.19,2.39 -1.76,5.94001 -0.56,3.54 -0.56,8.56 z m 126.565,-9.42001 h -7.81 q 0,-3.52 -0.52,-5.83 -0.51,-2.32 -2.41,-3.72 -1.91,-1.39 -5.64,-1.95 -3.74,-0.56 -10.18,-0.56 v 0 q -6.3,0 -10.26,1.1 -3.95,1.1 -6.2,3.1 -2.24,2 -3.05,4.78 -0.8,2.79 -0.8,6.21001 v 0 34.81 h -9.38 v -56.25001 h 9.38 v 8.94 q 0.48,-1.52 1.8,-3.35 1.32,-1.83 4.01,-3.42 2.68,-1.58 6.95,-2.66 4.28,-1.07 10.67,-1.07 v 0 q 7.33,0 11.92,1.29 4.59,1.3 7.15,3.81 2.56,2.51 3.47,6.23 0.9,3.71 0.9,8.54 z"
       data-textpath="Molecular Entity Generator"
       data-text-anchor="middle"
       data-font-size="100"
       data-letterspacing="0"
       data-side="left"
       data-offset="0"
       data-dx="0"
       data-dy="106.640625"
       data-href=""
       data-font="Michroma"
       data-font-src="/Content/clientfonts/michroma.woff"
       data-font-scale="contain"
       data-xmlspace="preserve"
       id="path489"
       style="fill:url(#linearGradient2049)" />
    <rect
       x="0"
       y="0"
       width="0"
       height="0"
       id="rect491" />
  </g>
  <g
     id="g497"
     transform="translate(-215.33084,-454.75281)">
    <rect
       x="0"
       y="0"
       width="0"
       height="0"
       style="stroke:#ff8800;stroke-width:1px"
       fill="rgba(255,136,0,0.1)"
       id="rect495" />
  </g>
  <g
     class="selector-part"
     id="g501"
     transform="translate(-215.33084,-454.75281)">
    <rect
       x="0"
       y="0"
       width="0"
       height="0"
       style="stroke:#3399ff;stroke-width:1px"
       fill="rgba(168,202,236,0.5)"
       id="rect499" />
  </g>
  <g
     class="svg-clip svg-visible"
     style="opacity:1"
     transform="matrix(3.0626,0,0,1.0753,307.85016,55.107035)"
     id="g485">
    <rect
       x="0"
       y="0"
       width="186"
       height="17"
       style="fill:none"
       class="svg-hitbox"
       id="rect471" />
    <g
       id="g477" />
    <g
       id="g481"
       transform="matrix(0.99289447,0,0,1,2.6121596,-91.744001)">
      <rect
         x="0"
         id="rect479"
         style="fill:url(#linearGradientSke8w4uc07s-9);stroke:none"
         height="7.2189999"
         width="176.742"
         y="84.525002" />
    </g>
  </g>
</svg>
